<svg width="69" height="69" viewBox="0 0 69 69" fill="none" xmlns="http://www.w3.org/2000/svg">
<path d="M9.61644 62.1026L4.07959 0H64.9203L59.3776 62.0927L34.4628 69L9.61644 62.1026Z" fill="#264DE4"/>
<path d="M54.6324 58.139L59.3691 5.0777H34.5V63.7204L54.6324 58.139Z" fill="#2965F1"/>
<path d="M16.7731 28.1108L17.4557 35.7273H34.5002V28.1108H16.7731ZM16.0938 20.3112H34.5002V12.6945H15.4014L16.0938 20.3112ZM34.5002 47.8919L34.4668 47.9008L25.9841 45.6103L25.4419 39.5357H17.7959L18.8631 51.4949L34.4652 55.8263L34.5002 55.8164V47.8919Z" fill="#EBEBEB"/>
<path d="M34.4736 28.1108V35.7273H43.8526L42.9686 45.6055L34.4736 47.8983V55.8225L50.0881 51.4949L50.2027 50.208L51.9924 30.156L52.1783 28.1108L53.5533 12.6945H34.4736V20.3112H45.2062L44.513 28.1108H34.4736Z" fill="white"/>
</svg>
