<svg width="124" height="124" viewBox="0 0 124 124" fill="none" xmlns="http://www.w3.org/2000/svg">
<path d="M17.2818 111.605L7.3315 0H116.668L106.708 111.587L61.9332 124L17.2818 111.605Z" fill="#264DE4"/>
<path d="M98.1799 104.482L106.692 9.12524H62V114.512L98.1799 104.482Z" fill="#2965F1"/>
<path d="M30.1427 50.5178L31.3693 64.2055H62V50.5178H30.1427ZM28.9218 36.5012H62V22.8132H27.6774L28.9218 36.5012ZM62 86.0666L61.9399 86.0825L46.6957 81.9663L45.7214 71.0495H31.9806L33.8985 92.5414L61.937 100.325L62 100.308V86.0666Z" fill="#EBEBEB"/>
<path d="M61.9528 50.5178V64.2055H78.8078L77.2191 81.9576L61.9528 86.0779V100.319L90.0136 92.5414L90.2194 90.2288L93.4357 54.1932L93.7699 50.5178L96.241 22.8132H61.9528V36.5012H81.2403L79.9945 50.5178H61.9528Z" fill="white"/>
</svg>
