<svg width="46" height="46" viewBox="0 0 46 46" fill="none" xmlns="http://www.w3.org/2000/svg">
<path d="M40.375 0.375C41.7011 0.375 42.9729 0.901784 43.9105 1.83947C44.8482 2.77715 45.375 4.04892 45.375 5.375V40.375C45.375 41.7011 44.8482 42.9729 43.9105 43.9105C42.9729 44.8482 41.7011 45.375 40.375 45.375H5.375C4.04892 45.375 2.77715 44.8482 1.83947 43.9105C0.901784 42.9729 0.375 41.7011 0.375 40.375V5.375C0.375 4.04892 0.901784 2.77715 1.83947 1.83947C2.77715 0.901784 4.04892 0.375 5.375 0.375H40.375ZM39.125 39.125V25.875C39.125 23.7135 38.2663 21.6405 36.7379 20.1121C35.2095 18.5837 33.1365 17.725 30.975 17.725C28.85 17.725 26.375 19.025 25.175 20.975V18.2H18.2V39.125H25.175V26.8C25.175 24.875 26.725 23.3 28.65 23.3C29.5783 23.3 30.4685 23.6687 31.1249 24.3251C31.7813 24.9815 32.15 25.8717 32.15 26.8V39.125H39.125ZM10.075 14.275C11.1889 14.275 12.2572 13.8325 13.0448 13.0448C13.8325 12.2572 14.275 11.1889 14.275 10.075C14.275 7.75 12.4 5.85 10.075 5.85C8.95446 5.85 7.87981 6.29513 7.08747 7.08747C6.29513 7.87981 5.85 8.95446 5.85 10.075C5.85 12.4 7.75 14.275 10.075 14.275ZM13.55 39.125V18.2H6.625V39.125H13.55Z" fill="black"/>
</svg>
