<svg width="49" height="48" viewBox="0 0 49 48" fill="none" xmlns="http://www.w3.org/2000/svg">
<path d="M13.2211 37.6616V35.8184C11.8669 37.3425 10.192 38.016 7.73309 38.016C3.74182 38.016 1.06909 35.6411 1.06909 32.0256C1.06909 28.3038 4.09818 26.2833 9.58618 26.2833C10.6196 26.2833 11.5818 26.3542 12.4015 26.496V25.5744C12.4015 23.9084 11.4393 22.9868 9.72873 22.9868C8.05382 22.9868 7.056 23.9084 6.84218 25.5744H1.35418C1.71055 21.1436 5.02473 18.2371 9.76437 18.2371C15.0385 18.2371 18.1389 21.0728 18.1389 25.8934V37.6616H13.2211ZM6.80655 31.8484C6.80655 33.089 7.66182 33.8334 9.15855 33.8334C11.1898 33.8334 12.4015 32.8763 12.4015 31.3167V30.1115C11.4749 29.9343 10.7622 29.8634 9.97818 29.8634C7.91127 29.8634 6.80655 30.5369 6.80655 31.8484Z" fill="black"/>
<path d="M20.0455 23.2616C20.0455 15.3087 26.5272 8.86157 34.5227 8.86157C42.5183 8.86157 49 15.3087 49 23.2616C49 31.2145 42.5183 37.6616 34.5227 37.6616H20.0455V23.2616Z" fill="black"/>
<path d="M39.461 30.4544C37.9438 33.7659 34.6586 35.5228 31.5239 34.1019C30.162 33.4845 29.2625 32.4276 28.7645 31.0072L28.1635 32.3189L24.7694 30.7804L31.8432 15.3412L35.54 17.0169L33.274 21.9626C34.5761 21.5141 35.8108 21.5544 37.0214 22.1031C40.1563 23.5241 40.9982 27.0999 39.461 30.4544ZM35.613 28.7101C36.4603 26.8608 35.742 25.5224 34.6179 25.0129C33.4937 24.5033 32.0168 24.8206 31.1695 26.6699C30.3321 28.4977 31.009 29.8692 32.1548 30.3886C33.279 30.8982 34.7855 30.5164 35.613 28.7101Z" fill="white"/>
</svg>
