<svg width="49" height="48" viewBox="0 0 49 48" fill="none" xmlns="http://www.w3.org/2000/svg">
<path d="M13.2211 37.6615V35.8183C11.8669 37.3425 10.192 38.016 7.73309 38.016C3.74182 38.016 1.06909 35.6411 1.06909 32.0256C1.06909 28.3038 4.09818 26.2833 9.58618 26.2833C10.6196 26.2833 11.5818 26.3542 12.4015 26.496V25.5744C12.4015 23.9084 11.4393 22.9868 9.72873 22.9868C8.05382 22.9868 7.056 23.9084 6.84218 25.5744H1.35418C1.71055 21.1436 5.02473 18.237 9.76437 18.237C15.0385 18.237 18.1389 21.0727 18.1389 25.8934V37.6615H13.2211ZM6.80655 31.8484C6.80655 33.089 7.66182 33.8334 9.15855 33.8334C11.1898 33.8334 12.4015 32.8763 12.4015 31.3167V30.1115C11.4749 29.9343 10.7622 29.8634 9.97818 29.8634C7.91127 29.8634 6.80655 30.5369 6.80655 31.8484Z" fill="black"/>
<path d="M20.0454 23.2615C20.0454 15.3086 26.5271 8.86154 34.5227 8.86154C42.5182 8.86154 49 15.3086 49 23.2615C49 31.2144 42.5182 37.6615 34.5227 37.6615H20.0454V23.2615Z" fill="black"/>
<path d="M39.4609 30.4544C37.9437 33.7659 34.6585 35.5228 31.5238 34.1019C30.1619 33.4845 29.2624 32.4276 28.7644 31.0073L28.1634 32.319L24.7693 30.7804L31.8431 15.3412L35.5399 17.0169L33.2739 21.9626C34.5759 21.5141 35.8107 21.5544 37.0213 22.1031C40.1561 23.5241 40.9981 27.0999 39.4609 30.4544ZM35.6129 28.7101C36.4602 26.8608 35.7419 25.5224 34.6177 25.0129C33.4936 24.5033 32.0166 24.8206 31.1694 26.6699C30.3319 28.4977 31.0089 29.8693 32.1547 30.3886C33.2789 30.8982 34.7853 30.5164 35.6129 28.7101Z" fill="white"/>
</svg>
